<?xml version="1.0" standalone="no"?>
<!DOCTYPE svg PUBLIC "-//W3C//DTD SVG 20010904//EN"
 "http://www.w3.org/TR/2001/REC-SVG-20010904/DTD/svg10.dtd">
<svg version="1.0" xmlns="http://www.w3.org/2000/svg"
 width="382.000000pt" height="382.000000pt" viewBox="0 0 382.000000 382.000000"
 preserveAspectRatio="xMidYMid meet">

<g transform="translate(0.000000,382.000000) scale(0.100000,-0.100000)"
fill="#000000" stroke="none">
<path d="M1794 2610 c-90 -8 -129 -27 -139 -68 -5 -21 6 -51 50 -138 31 -61
65 -125 75 -142 l20 -32 109 0 110 0 24 43 c122 214 137 265 93 306 -20 19
-41 24 -123 31 -108 10 -103 10 -219 0z"/>
<path d="M1616 2298 c-25 -14 -23 -163 2 -177 11 -6 24 -6 35 0 14 8 17 25 17
93 0 73 -2 84 -19 89 -10 2 -26 0 -35 -5z"/>
<path d="M2144 2287 c-3 -8 -4 -47 -2 -88 l3 -74 31 -3 c36 -4 44 12 44 88 0
73 -8 90 -41 90 -17 0 -32 -6 -35 -13z"/>
<path d="M1792 2132 c-49 -18 -112 -65 -112 -84 0 -4 101 -8 225 -8 143 0 225
4 225 10 0 6 -9 19 -21 31 -61 61 -217 86 -317 51z"/>
<path d="M1833 1991 c-47 -12 -116 -56 -152 -96 -39 -44 -39 -55 -1 -55 20 0
35 8 46 25 9 13 41 37 71 51 99 49 217 30 287 -45 29 -30 86 -44 86 -21 0 21
-92 101 -137 121 -53 23 -151 32 -200 20z"/>
<path d="M836 1522 c-6 -10 -86 -366 -86 -383 0 -6 14 -9 33 -7 24 2 33 8 35
25 6 43 85 41 96 -3 5 -19 13 -24 37 -24 37 0 38 -20 -11 215 -18 88 -38 166
-43 173 -11 14 -53 16 -61 4z m48 -234 c7 -36 6 -38 -19 -38 -25 0 -26 2 -20
33 13 62 17 72 25 56 4 -8 10 -31 14 -51z"/>
<path d="M1057 1524 c-4 -4 -7 -18 -7 -31 0 -22 4 -25 45 -27 19 -1 20 -9 23
-167 l2 -167 25 -4 c13 -3 27 -3 30 0 3 3 5 79 5 169 0 101 4 163 10 164 6 1
20 2 33 3 18 1 22 7 22 31 l0 30 -90 3 c-50 1 -94 0 -98 -4z"/>
<path d="M1324 1516 c-9 -23 0 -51 16 -52 54 -4 50 9 50 -167 0 -90 2 -166 5
-169 3 -3 17 -3 30 0 l25 4 0 157 c0 86 4 161 8 167 4 7 18 11 32 10 21 -1 25
3 25 29 l0 30 -93 3 c-74 2 -93 0 -98 -12z"/>
<path d="M1597 1524 c-4 -4 -7 -95 -7 -201 l0 -194 83 3 82 3 0 30 c0 28 -3
30 -45 35 l-45 5 -3 53 -3 52 44 0 c39 0 45 3 49 23 7 38 -1 47 -48 47 l-44 0
0 40 c0 24 5 41 13 42 6 1 23 2 37 3 14 2 31 3 38 4 8 1 12 11 10 29 -3 26 -4
27 -78 30 -42 1 -79 0 -83 -4z"/>
<path d="M1833 1516 c-4 -8 -7 -98 -5 -199 l3 -185 25 -5 c13 -2 27 1 31 6 4
6 6 59 4 117 -1 69 1 102 7 95 6 -5 29 -55 52 -110 42 -102 51 -115 79 -110
14 2 16 25 16 201 l0 199 -25 0 c-25 0 -25 0 -30 -115 l-5 -115 -39 95 c-21
52 -45 105 -53 118 -15 25 -48 29 -60 8z"/>
<path d="M2133 1524 c-10 -4 -13 -54 -13 -201 l0 -196 69 5 c82 6 121 27 151
80 19 34 21 51 18 127 -2 73 -7 93 -27 123 -14 20 -34 41 -45 48 -21 13 -132
23 -153 14z m129 -81 c23 -20 41 -104 33 -153 -8 -49 -41 -89 -75 -92 l-25 -3
-3 124 c-1 69 -1 130 2 137 6 15 44 7 68 -13z"/>
<path d="M2437 1524 c-8 -8 -10 -388 -2 -396 3 -2 19 -3 35 0 l30 4 -2 197 -3
196 -25 3 c-14 2 -29 0 -33 -4z"/>
<path d="M2582 1522 c-9 -7 -12 -53 -10 -198 l3 -189 33 -3 32 -3 0 90 0 90
48 3 c45 3 47 4 47 33 0 29 -2 30 -47 33 -47 3 -48 4 -48 36 0 39 17 57 49 51
35 -7 51 5 51 36 l0 29 -72 0 c-40 0 -79 -4 -86 -8z"/>
<path d="M2816 1521 c-3 -4 17 -57 44 -117 47 -102 50 -114 50 -190 0 -44 2
-83 5 -86 3 -3 16 -3 29 -1 22 5 24 11 31 99 6 81 13 107 51 191 37 82 41 99
29 106 -30 16 -53 -3 -81 -68 -16 -36 -31 -65 -35 -65 -4 0 -17 26 -29 58 -13
31 -28 63 -33 70 -11 14 -53 16 -61 3z"/>
</g>
</svg>
